<?xml version="1.0" encoding="utf-8"?>
<!-- Generator: Adobe Illustrator 28.1.0, SVG Export Plug-In . SVG Version: 6.00 Build 0)  -->
<svg version="1.1" id="Layer_1" xmlns="http://www.w3.org/2000/svg" xmlns:xlink="http://www.w3.org/1999/xlink" x="0px" y="0px"
	 viewBox="0 0 36 36" style="enable-background:new 0 0 36 36;" xml:space="preserve">
<style type="text/css">
	.st0{fill:none;stroke:#FFFFFF;stroke-width:2.25;stroke-linecap:round;stroke-linejoin:round;}
</style>
<path class="st0" d="M30,10.5l-12,6l-12-6"/>
<path class="st0" d="M27.9,7l-7.5-3.5c-1.6-0.7-3.3-0.7-4.9,0L8.1,7c-2.2,1-3.6,3.2-3.6,5.7v10.6c0,2.5,1.4,4.7,3.6,5.7l7.5,3.5
	c1.6,0.7,3.3,0.7,4.9,0l7.5-3.5c2.2-1,3.6-3.2,3.6-5.7V12.7C31.5,10.2,30.1,8,27.9,7z"/>
<path class="st0" d="M12,6l13.5,7.5v15.8"/>
<path class="st0" d="M18,16.5V33"/>
</svg>
