<?xml version="1.0" encoding="utf-8"?>
<!-- Generator: Adobe Illustrator 28.1.0, SVG Export Plug-In . SVG Version: 6.00 Build 0)  -->
<svg version="1.1" id="Layer_1" xmlns="http://www.w3.org/2000/svg" xmlns:xlink="http://www.w3.org/1999/xlink" x="0px" y="0px"
	 viewBox="0 0 37 36" style="enable-background:new 0 0 37 36;" xml:space="preserve">
<style type="text/css">
	.st0{fill:none;stroke:#FFFFFF;stroke-width:2.25;stroke-linecap:square;stroke-linejoin:round;}
</style>
<path class="st0" d="M31.8,24v3c0,2.5-2,4.5-4.5,4.5c-2.5,0-4.5-2-4.5-4.5v-3c0-2.5,2-4.5,4.5-4.5C29.8,19.5,31.8,21.5,31.8,24z
	 M31.8,24v-6c0-7.5-6-13.5-13.5-13.5c-7.5,0-13.5,6-13.5,13.5v6 M4.8,24v3c0,2.5,2,4.5,4.5,4.5c2.5,0,4.5-2,4.5-4.5v-3
	c0-2.5-2-4.5-4.5-4.5C6.8,19.5,4.8,21.5,4.8,24z"/>
</svg>
