<?xml version="1.0" encoding="UTF-8"?>
<svg id="Layer_2" data-name="Layer 2" xmlns="http://www.w3.org/2000/svg" viewBox="0 0 29.25 32.25">
  <defs>
    <style>
      .cls-1 {
        fill: none;
        stroke: #fff;
        stroke-linecap: round;
        stroke-linejoin: round;
        stroke-width: 2.25px;
      }
    </style>
  </defs>
  <g id="Layer_1-2" data-name="Layer 1">
    <path class="cls-1" d="M26.62,8.63l-12,6L2.62,8.63"/>
    <path class="cls-1" d="M24.56,5.13l-7.5-3.46c-1.55-.72-3.32-.72-4.87,0l-7.5,3.46c-2.17,1-3.56,3.23-3.56,5.7v10.6c0,2.46,1.4,4.7,3.56,5.7l7.5,3.46c1.55.72,3.32.72,4.87,0l7.5-3.46c2.17-1,3.56-3.23,3.56-5.7v-10.6c0-2.46-1.4-4.7-3.56-5.7Z"/>
    <path class="cls-1" d="M8.62,4.13l13.5,7.5v15.75"/>
    <path class="cls-1" d="M14.62,14.63v16.5"/>
  </g>
</svg>